. 
  
http://www.torrenting.com/        :     Greatest Movie Tracker on The Net!!!
 
http://www.Torrenting.com          :     Once & For all ;)


               www . Torrenting . Com 

(((((((((((((= Enjoy No RAR releases =))))))))))))))))))))


...................................NFO:....................................

.      *********** ****    ****      ***      ******** *********** ****    *** **********
           *+*     +*+*+* *+*+*+   *+* *+*   *+*    *+*    *+*     *+*+*   *+* *+*        
           +*+     +*+ +*+*+ +*+  +*+   +*+  +*+           +*+     *+*+*+  +*+ +*+        
           +$+     +$+  +*+  +$+ +$++*++$++* *$*           +$+     +$+ +*+ +$+ +$++*++$  
           +$+     +$+       +$+ +$+     +$+ +$+   +$+$    +$+     +$+  +$+$+$ +$+        
           $+$     $+$       $+$ $+$     $+$ $+$    $+$    $+$     $+$   $+$+$ $+$        
       $$$$$$$$$$$ $$$       $$$ $$$     $$$  $$$$$$$$ $$$$$$$$$$$ $$$    $$$$ $$$$$$$$$$     
                                                



                           Another Fine Release Brought to you from - IMAGiNE                   
                                                 

********************************************************************************************************************                                
                                Something Borred CAM XViD - IMAGiNE
********************************************************************************************************************

Ripper ...........: IMAGiNE                                      IMDB Rating.......: 5.5/10                             
Video Codec.......: XVID                                         Release Date......: 11/05/11
Audio Codec.......: MP3                                          Theatre Date......: 06/05/11
Audio Bitrate.....: 128                                          Runtime...........: 1h 47mn
Subtitles.........: NIL                                          Language..........: ENGLISH
Resolution........: 720 x 384                                    IMDb URL..........: http://www.imdb.com/title/tt0491152/


[color=yellow]DETAILS:[/color]

Video
ID                               : 0
Format                           : MPEG-4 Visual
Format profile                   : Advanced Simple@L5
Format settings, BVOP            : Yes
Format settings, QPel            : No
Format settings, GMC             : No warppoints
Format settings, Matrix          : Default (MPEG)
Muxing mode                      : Packed bitstream
Codec ID                         : XVID
Codec ID/Hint                    : XviD
Duration                         : 1h 47mn
Bit rate                         : 1 685 Kbps
Width                            : 720 pixels
Height                           : 384 pixels
Display aspect ratio             : 1.875
Frame rate                       : 25.000 fps
Color space                      : YUV
Chroma subsampling               : 4:2:0
Bit depth                        : 8 bits
Scan type                        : Progressive
Bits/(Pixel*Frame)               : 0.244
Stream size                      : 1.27 GiB (92%)
Writing library                  : XviD 61

Audio
ID                               : 1
Format                           : MPEG Audio
Format version                   : Version 1
Format profile                   : Layer 3
Codec ID                         : 55
Codec ID/Hint                    : MP3
Duration                         : 1h 47mn
Bit rate mode                    : Constant
Bit rate                         : 128 Kbps
Channel(s)                       : 1 channel
Sampling rate                    : 44.1 KHz
Video delay                      : 20ms
Stream size                      : 98.7 MiB (7%)
Alignment                        : Split accross interleaves
Interleave, duration             : 40 ms (1.00 video frame)
Interleave, preload duration     : 500 ms
Writing library                  : LAME3.98‼kmlLj♦


[color=yellow]SOURCES:[/color]

VIDEO: russians....:P Thanks matey
AUDIO: Lu ....:P Thanks matey

[color=yellow]NOTES:[/color]

IMAGiNE bringing you another release.......... Something Borred

This time we have to thanks Lu for sycing the audio big thanks again great work......
Now the video was just ok but was interlaced and has an scolling flicker to it.......
So we cropped,rotated and resized also adjusted the brightness,rgb, and all of that :P
The audio we muxed to our encode......
Enjoy folks!



[color=yellow]SCREENS:[/color]

[IMG]http://www.grinshare.com/img/U183MS.png[/IMG]
[IMG]http://www.grinshare.com/img/J4KLKX.png[/IMG]
[IMG]http://www.grinshare.com/img/15SZYR.png[/IMG]
[IMG]http://www.grinshare.com/img/RAYJAN.png[/IMG]
[IMG]http://www.grinshare.com/img/8W4407.png[/IMG]
[IMG]http://www.grinshare.com/img/TM59H0.png[/IMG]


[color=yellow]GREETS:[/color]

FLAWL3SS,FUSiON,Rx,SecretMyth,KINOPARK,ELEKTRI4KA,ADDiCTED and Autotron
And to all the other p2p grps past and present 


[COLOR=RED]Looking for these,syncers,cammers,silver supplier,Audio.....Have anything to offer????......
Contact us imaginegroup@hushmail.com[/COLOR]